<svg width="60" height="60" viewBox="0 0 60 60" fill="none" xmlns="http://www.w3.org/2000/svg">
<path opacity="0.21" fill-rule="evenodd" clip-rule="evenodd" d="M0 30V37C0 49.7025 10.2975 60 23 60H30H37C49.7025 60 60 49.7025 60 37V30V23C60 10.2975 49.7025 0 37 0H30H23C10.2975 0 0 10.2975 0 23V30Z" fill="#8280FF"/>
<path d="M21.3899 43.8889H39.3145C39.9744 43.8889 40.5094 44.5853 40.5094 45.4444C40.5094 46.3036 39.9744 47 39.3145 47H20.195C19.535 47 19 46.3036 19 45.4444V20.5556C19 19.6964 19.535 19 20.195 19C20.8549 19 21.3899 19.6964 21.3899 20.5556V43.8889Z" fill="#4AD991"/>
<path opacity="0.5" d="M25.8465 37.175C25.3952 37.8018 24.6389 37.8335 24.1575 37.2459C23.676 36.6584 23.6516 35.674 24.103 35.0472L28.5841 28.825C29.0206 28.2188 29.746 28.1663 30.2316 28.7056L33.7684 32.6344L38.3765 25.0361C38.7854 24.3618 39.5368 24.2467 40.0548 24.7791C40.5728 25.3114 40.6612 26.2896 40.2523 26.9639L34.8749 35.8306C34.4549 36.5231 33.677 36.6227 33.1613 36.05L29.5477 32.0358L25.8465 37.175Z" fill="#4AD991"/>
</svg>
