<svg width="83" height="75" viewBox="0 0 83 75" fill="none" xmlns="http://www.w3.org/2000/svg">
<g clip-path="url(#clip0_51_3409)">
<g clip-path="url(#clip1_51_3409)">
<g clip-path="url(#clip2_51_3409)">
<path fill-rule="evenodd" clip-rule="evenodd" d="M46.9611 16.2519L47.1281 16.2759L47.2951 16.3219L47.4531 16.3849L47.6041 16.4639L47.7471 16.5589L47.8781 16.6669L47.9971 16.7909L48.1011 16.9269L48.1921 17.0719L48.2641 17.2269L48.3201 17.3879L48.3591 17.5549L48.3791 17.7239V17.8959L48.3631 18.0659L48.3271 18.2329L46.5381 24.9079L54.4901 27.0379L56.2091 20.6249L56.2631 20.4599L56.3331 20.3019L56.4231 20.1529L56.5271 20.0129L56.6451 19.8879L56.7781 19.7759L56.9201 19.6779L57.0741 19.5969L57.2341 19.5339L57.4011 19.4859L57.5731 19.4589L57.7471 19.4529L57.9191 19.4619L58.0901 19.4929L58.2581 19.5409L58.4181 19.6059L58.5691 19.6899L58.7121 19.7889L58.8431 19.9019L58.9581 20.0309L59.0211 20.1049L59.1521 20.2729L59.2151 20.3559L59.3421 20.5279L59.4641 20.6989L59.5231 20.7879L59.5791 20.8729L59.6381 20.9609L59.6941 21.0519L59.8031 21.2279L59.8571 21.3179L59.9091 21.4089L59.9811 21.5349L60.0531 21.6639L60.1211 21.7949L60.1891 21.9239L60.2541 22.0549L60.3181 22.1839L60.3811 22.3149L60.4401 22.4479L60.4981 22.5789L60.5551 22.7119L60.6631 22.9789L60.7151 23.1119L60.7631 23.2449L60.8121 23.3809L60.8581 23.5159L60.9431 23.7869L60.9841 23.9229L61.0611 24.1939L61.1291 24.4699L61.1601 24.6049L61.1921 24.7429L61.2461 25.0189L61.2711 25.1559L61.3161 25.4319L61.3521 25.7079L61.3841 25.9829L61.3981 26.1209L61.4071 26.2609L61.4181 26.3989L61.4311 26.6739L61.4361 26.8119L61.4381 26.9499V27.2279L61.4361 27.3659L61.4271 27.6409L61.4201 27.7769L61.4111 27.9149L61.4001 28.0519L61.3881 28.1879L61.3751 28.3259L61.3591 28.4609L61.3411 28.5969L61.3231 28.7349L61.3031 28.8699L61.2801 29.0029L61.2571 29.1389L61.2331 29.2739L61.2051 29.4079L61.1761 29.5429L61.1471 29.6759L61.0841 29.9429L61.0471 30.0739L61.0111 30.2069L60.9341 30.4689L60.8941 30.5999L60.8511 30.7289L60.8081 30.8599L60.7601 30.9889L60.7151 31.1179L60.6661 31.2459L60.6161 31.3729L60.5641 31.4989L60.4561 31.7519L60.3991 31.8789L60.3401 32.0029L60.2821 32.1249L60.2211 32.2489L60.1601 32.3709L60.0291 32.6149L59.9631 32.7349L59.8231 32.9749L59.7531 33.0919L59.6811 33.2089L59.6061 33.3269L59.4531 33.5569L59.3731 33.6729L59.2111 33.8979L59.0441 34.1199L58.9581 34.2309L58.8701 34.3389L58.7821 34.4449L58.6911 34.5539L58.5991 34.6599L58.5061 34.7639L58.4111 34.8679L58.3141 34.9689L58.2171 35.0729L58.1201 35.1729L57.9161 35.3709L57.8151 35.4679L57.7091 35.5629L57.6021 35.6599L57.4961 35.7529L57.3881 35.8459L57.2771 35.9379L57.1661 36.0289L56.9411 36.2049L56.8251 36.2909L56.7081 36.3769L56.5901 36.4599L56.4711 36.5439L56.3511 36.6249L56.2291 36.7039L56.1051 36.7829L55.8561 36.9369L55.7301 37.0089L55.6421 37.0609L55.5541 37.1079L55.4661 37.1579L55.3771 37.2059L55.2891 37.2509L55.1991 37.2979L55.1111 37.3409L55.0231 37.3859L54.8421 37.4719L54.7521 37.5129L54.6641 37.5529L54.5731 37.5939L54.4811 37.6319L54.3901 37.6709L54.3001 37.7069L54.2101 37.7449L54.1171 37.7789L54.0271 37.8149L53.9341 37.8489L53.8441 37.8829L53.6581 37.9459L53.5661 37.9759L53.4731 38.0069L53.3811 38.0349L53.2881 38.0639L53.1031 38.1179L53.0081 38.1429L52.8231 38.1929L52.7301 38.2149L52.6351 38.2379L52.5421 38.2599L52.3531 38.3009L52.1671 38.3369L51.9781 38.3729L51.8851 38.3889L51.7901 38.4029L51.6951 38.4189L51.6001 38.4319L51.5061 38.4429L51.4131 38.4569L51.3181 38.4679L50.9391 38.5039L50.8461 38.5109L50.7511 38.5179L50.3721 38.5359L50.2791 38.5379H50.1841L50.0891 38.5409H49.9021L49.6191 38.5339L49.4321 38.5249L49.3371 38.5199L49.2421 38.5129L49.1501 38.5069L49.0571 38.4979L48.9621 38.4909L48.8691 38.4819L48.7771 38.4709L48.6821 38.4619L48.5891 38.4479L48.4971 38.4369L48.2191 38.3959L47.9411 38.3489L47.8511 38.3309L47.7581 38.3119L47.6651 38.2919L47.5751 38.2739L47.4821 38.2539L47.3921 38.2309L47.3021 38.2109L47.2091 38.1859L47.1211 38.1629L47.0281 38.1389L46.9401 38.1139L46.8501 38.0889L46.6691 38.0349L46.5811 38.0069L46.4911 37.9779L46.4031 37.9509L46.3121 37.9189L46.2241 37.8899L46.1361 37.8579L46.0501 37.8249L45.9621 37.7929L45.8741 37.7589L45.7881 37.7249L45.6121 37.6529L45.4401 37.5809L45.2691 37.5039L45.1831 37.4629L45.0991 37.4249L45.0161 37.3839L44.9681 37.3609L16.7791 54.5719L16.7341 54.5989L16.6861 54.6289L16.5371 54.7099L16.4901 54.7369L16.4381 54.7619L16.3381 54.8119L16.2861 54.8369L16.1871 54.8819L16.1351 54.9039L16.0851 54.9249L15.9291 54.9859L15.7221 55.0579L15.6671 55.0739L15.5121 55.1209L15.4601 55.1349L15.4051 55.1479L15.3531 55.1619L15.2991 55.1729L15.2431 55.1869L15.1411 55.2069L15.0331 55.2269L14.8201 55.2589L14.7121 55.2729L14.6031 55.2819L14.4971 55.2879L14.3891 55.2949L14.2831 55.2969H14.0681L13.9601 55.2929L13.7471 55.2789L13.6411 55.2679L13.5351 55.2549L13.3231 55.2229L13.2191 55.2029L13.1131 55.1799L13.0091 55.1549L12.9051 55.1279L12.8031 55.1009L12.6991 55.0689L12.5981 55.0349L12.4961 54.9989L12.3961 54.9629L12.2951 54.9219L12.1981 54.8819L12.0981 54.8369L11.9041 54.7419L11.8091 54.6899L11.7171 54.6399L11.6671 54.6079L11.6191 54.5809L11.5721 54.5519L11.5271 54.5249L11.4821 54.4929L11.4341 54.4639L11.3891 54.4349L11.3461 54.4029L11.2561 54.3399L11.1651 54.2719L11.1251 54.2379L11.0801 54.2039L11.0371 54.1679L10.9941 54.1339L10.9531 54.0979L10.9101 54.0619L10.8691 54.0259L10.8271 53.9869L10.7451 53.9099L10.6661 53.8309L10.6281 53.7909L10.5891 53.7519L10.5511 53.7089L10.5101 53.6689L10.4741 53.6259L10.4471 53.5939L10.4381 53.5849L10.3791 53.5169L10.3251 53.4519L10.2711 53.3839L10.2191 53.3189L10.1671 53.2509L10.1151 53.1809L10.0651 53.1109L10.0181 53.0429L9.9701 52.9709L9.9231 52.9009L9.8781 52.8279L9.8331 52.7579L9.7901 52.6859L9.7471 52.6119L9.7061 52.5369L9.6651 52.4649L9.6271 52.3899L9.5891 52.3129L9.5521 52.2389L9.4801 52.0849L9.4491 52.0079L9.4151 51.9319L9.3831 51.8549L9.2951 51.6179L9.2411 51.4599L9.2161 51.3779L9.1931 51.2989L9.1481 51.1359L9.1281 51.0549L9.0741 50.8109L9.0421 50.6439L9.0281 50.5629L8.9941 50.3119L8.9761 50.1449L8.9701 50.0609L8.9651 49.9779L8.9611 49.8919L8.9561 49.8079V49.7249L8.9541 49.6409V49.5549L8.9581 49.3859L8.9631 49.3019L8.9671 49.2159L8.9741 49.1309L8.9811 49.0469L8.9901 48.9609L8.9991 48.8779L9.0101 48.7919L9.0221 48.7079L9.0351 48.6219L9.0831 48.3719L9.1011 48.2859L9.1211 48.2019L9.1411 48.1209L9.1621 48.0369L9.1841 47.9559L9.2591 47.7119L9.2861 47.6329L9.3151 47.5519L9.3741 47.3929L9.4061 47.3139L9.5071 47.0839L9.5801 46.9299L9.6561 46.7809L9.6971 46.7069L9.7781 46.5619L9.8641 46.4179L9.9551 46.2769L10.0491 46.1369L10.0991 46.0699L10.1471 46.0019L10.1991 45.9339L10.3541 45.7379L10.4631 45.6109L10.5191 45.5479L10.5761 45.4869L10.7521 45.3039L10.8131 45.2469L10.8741 45.1889L10.9351 45.1319L11.0611 45.0189L11.1271 44.9649L11.1901 44.9109L11.2581 44.8589L11.3231 44.8069L11.3911 44.7549L11.4591 44.7049L11.5291 44.6559L11.6691 44.5609L11.7411 44.5129L11.8861 44.4229L12.0351 44.3369L12.1031 44.2989L38.8891 29.6669L38.8871 29.6539L38.8331 29.4099L38.8081 29.2879L38.7851 29.1639L38.7631 29.0419L38.7431 28.9199L38.7241 28.7959L38.7061 28.6739L38.6911 28.5519L38.6751 28.4269L38.6611 28.3049L38.6501 28.1809L38.6391 28.0589L38.6301 27.9349L38.6211 27.8129L38.6141 27.6889L38.6091 27.5669L38.6051 27.4419L38.6001 27.1959V26.9519L38.6051 26.8279L38.6071 26.7059L38.6141 26.5839L38.6181 26.4619L38.6451 26.0959L38.6571 25.9739L38.6701 25.8519L38.6841 25.7319L38.7001 25.6099L38.7181 25.4879L38.7541 25.2489L38.7741 25.1269L38.8191 24.8879L38.8441 24.7679L38.8711 24.6499L38.8961 24.5309L38.9261 24.4129L38.9551 24.2929L39.0501 23.9409L39.0861 23.8239L39.1221 23.7079L39.1581 23.5909L39.2351 23.3599L39.2761 23.2449L39.3191 23.1299L39.3611 23.0169L39.4071 22.9019L39.4521 22.7889L39.4971 22.6779L39.5471 22.5649L39.5941 22.4519L39.7501 22.1199L39.8041 22.0099L39.8581 21.9009L39.9151 21.7929L40.0321 21.5759L40.0911 21.4699L40.1521 21.3639L40.2791 21.1509L40.4101 20.9429L40.4771 20.8399L40.6131 20.6359L40.6851 20.5349L40.7551 20.4329L40.9791 20.1349L41.1331 19.9399L41.2121 19.8429L41.2911 19.7479L41.4531 19.5589L41.6201 19.3729L41.7921 19.1929L41.9681 19.0119L42.0591 18.9239L42.1491 18.8379L42.3341 18.6659L42.4291 18.5809L42.5241 18.4969L42.6211 18.4159L42.7181 18.3319L42.8181 18.2529L42.9171 18.1719L43.0161 18.0929L43.1181 18.0159L43.3261 17.8619L43.4321 17.7879L43.5361 17.7149L43.6441 17.6409L43.7511 17.5709L43.8611 17.4989L43.9721 17.4279L44.0831 17.3609L44.1931 17.2949L44.3061 17.2269L44.4261 17.1599L44.5481 17.0939L44.6681 17.0289L44.9121 16.9019L45.0361 16.8409L45.1581 16.7819L45.4061 16.6689L45.5311 16.6149L45.6571 16.5629L45.9101 16.4639L46.0391 16.4159L46.1651 16.3689L46.2851 16.3279L46.4501 16.2829L46.6171 16.2539L46.7891 16.2429L46.9611 16.2519ZM46.6921 17.8619L46.5811 17.9009L46.4731 17.9409L46.3641 17.9839L46.2581 18.0269L46.1501 18.0719L46.0431 18.1169L45.9371 18.1649L45.7251 18.2639L45.6191 18.3159L45.5151 18.3699L45.4091 18.4249L45.2011 18.5379L45.0971 18.5959L45.0001 18.6549L44.9031 18.7119L44.8081 18.7729L44.7131 18.8309L44.6181 18.8919L44.5251 18.9529L44.4331 19.0169L44.3421 19.0799L44.1621 19.2109L44.0741 19.2759L43.9861 19.3439L43.8141 19.4799L43.7281 19.5499L43.6441 19.6199L43.5611 19.6919L43.3981 19.8369L43.3171 19.9109L43.2381 19.9829L43.1611 20.0599L43.0821 20.1349L43.0071 20.2119L42.9311 20.2879L42.8561 20.3669L42.7121 20.5259L42.6391 20.6069L42.5691 20.6859L42.4991 20.7689L42.4311 20.8509L42.2961 21.0179L42.1651 21.1849L42.0381 21.3569L41.9771 21.4449L41.9161 21.5309L41.7991 21.7069L41.7401 21.7969L41.6841 21.8849L41.6271 21.9759L41.5731 22.0679L41.5191 22.1589L41.4671 22.2489L41.4151 22.3419L41.3651 22.4339L41.3151 22.5289L41.2661 22.6219L41.2181 22.7169L41.0831 23.0009L41.0401 23.0979L40.9971 23.1929L40.8751 23.4849L40.8371 23.5839L40.8001 23.6809L40.7281 23.8799L40.6941 23.9789L40.6311 24.1779L40.5991 24.2799L40.5701 24.3789L40.5411 24.4809L40.4861 24.6839L40.4621 24.7859L40.4371 24.8899L40.3921 25.0929L40.3511 25.3009L40.3331 25.4029L40.2971 25.6099L40.2831 25.7139L40.2671 25.8179L40.2541 25.9239L40.2311 26.1319L40.2221 26.2379L40.2131 26.3419L40.2041 26.4479L40.1971 26.5519L40.1881 26.7649L40.1841 26.8689L40.1811 26.9749V27.1869L40.1881 27.5029L40.1931 27.6099L40.2061 27.8219L40.2241 28.0339L40.2471 28.2469L40.2581 28.3499L40.2741 28.4569L40.2881 28.5629L40.3061 28.6689L40.3221 28.7749L40.3421 28.8789L40.3601 28.9849L40.3831 29.0909L40.4051 29.1949L40.4281 29.3019L40.4771 29.5089L40.5051 29.6159L40.5631 29.8229L40.6581 30.1349L40.6921 30.2389L40.7281 30.3429L40.7641 30.4449L12.8661 45.6829L12.8121 45.7129L12.7561 45.7439L12.7011 45.7779L12.6471 45.8099L12.5951 45.8439L12.5411 45.8779L12.4371 45.9499L12.3871 45.9859L12.3351 46.0219L12.2861 46.0609L12.2381 46.0989L12.1891 46.1369L11.9991 46.2999L11.8631 46.4289L11.8201 46.4739L11.7781 46.5169L11.7351 46.5619L11.6921 46.6099L11.6511 46.6549L11.5701 46.7499L11.5311 46.7969L11.4931 46.8469L11.4541 46.8939L11.4181 46.9439L11.3801 46.9939L11.3441 47.0459L11.3101 47.0949L11.2081 47.2509L11.1771 47.3049L11.1451 47.3569L11.1131 47.4109L11.0551 47.5199L11.0251 47.5759L10.9981 47.6309L10.9441 47.7439L10.9191 47.7999L10.8941 47.8589L10.8691 47.9149L10.8471 47.9739L10.8241 48.0299L10.8021 48.0889L10.7811 48.1479L10.7611 48.2089L10.7431 48.2679L10.7231 48.3289L10.7071 48.3869L10.6891 48.4479L10.6571 48.5699L10.6441 48.6339L10.6301 48.6949L10.6191 48.7559L10.5961 48.8819L10.5851 48.9429L10.5761 49.0059L10.5621 49.1329L10.5551 49.1939L10.5491 49.2569L10.5441 49.3199L10.5421 49.3839L10.5371 49.4449V49.5079L10.5351 49.5709V49.6949L10.5401 49.8199L10.5441 49.8829L10.5531 50.0069L10.5581 50.0679L10.5641 50.1289L10.5741 50.1919L10.5801 50.2529L10.5921 50.3139L10.6011 50.3749L10.6231 50.4969L10.6501 50.6189L10.6641 50.6779L10.6951 50.7999L10.7111 50.8589L10.7471 50.9759L10.7681 51.0369L10.7881 51.0939L10.8081 51.1519L10.8541 51.2699L10.8761 51.3259L10.9011 51.3829L10.9261 51.4409L10.9511 51.4979L10.9781 51.5519L11.0321 51.6649L11.0611 51.7189L11.0911 51.7759L11.1541 51.8839L11.1861 51.9359L11.2171 51.9899L11.2851 52.0939L11.3931 52.2499L11.4321 52.2999L11.4701 52.3519L11.5091 52.4009L11.5491 52.4489L11.5881 52.4989L11.6311 52.5459V52.5479L11.6581 52.5779L11.6831 52.6069L11.7101 52.6339L11.7351 52.6639L11.8431 52.7719L11.9271 52.8489L11.9561 52.8739L11.9831 52.8979L12.0421 52.9479L12.0711 52.9709L12.1011 52.9959L12.1891 53.0629L12.2201 53.0859L12.2501 53.1059L12.2811 53.1269L12.3131 53.1489L12.3421 53.1699L12.3741 53.1899L12.4061 53.2079L12.4371 53.2279L12.4691 53.2459L12.5031 53.2669L12.5661 53.3029L12.6971 53.3709L12.7651 53.4019L12.8301 53.4319L12.8981 53.4609L12.9661 53.4879L13.0361 53.5129L13.1041 53.5379L13.2441 53.5829L13.3141 53.6009L13.3861 53.6189L13.4561 53.6369L13.6731 53.6779L13.8171 53.6959L13.9621 53.7089L14.0341 53.7139L14.1091 53.7159H14.2531L14.4001 53.7119L14.4751 53.7049L14.6191 53.6909L14.6941 53.6799L14.7661 53.6689L14.8381 53.6549L14.9111 53.6389L14.9471 53.6329L15.0911 53.5959L15.1281 53.5849L15.1641 53.5759L15.2001 53.5649L15.2341 53.5539L15.2701 53.5419L15.3061 53.5289L15.3401 53.5169L15.4121 53.4899L15.4461 53.4769L15.4821 53.4629L15.5161 53.4469L15.5501 53.4339L15.5861 53.4179L15.6541 53.3859L15.6901 53.3679L15.7241 53.3519L15.8591 53.2799L15.8911 53.2599L15.9251 53.2399L15.9591 53.2209L44.9231 35.5359L45.1331 35.6579L45.2051 35.6989L45.2751 35.7369L45.3481 35.7779L45.4181 35.8139L45.4901 35.8519L45.5621 35.8889L45.6351 35.9269L45.7071 35.9609L45.7791 35.9969L45.8541 36.0309L45.9261 36.0649L46.0011 36.0989L46.0751 36.1299L46.1501 36.1639L46.2221 36.1959L46.2991 36.2249L46.3731 36.2569L46.4481 36.2859L46.5221 36.3129L46.5991 36.3429L46.6741 36.3699L46.9041 36.4509L47.0581 36.5009L47.1351 36.5229L47.2111 36.5479L47.2881 36.5709L47.3651 36.5909L47.4441 36.6139L47.5211 36.6339L47.6791 36.6749L47.7561 36.6929L47.9141 36.7289L47.9931 36.7449L48.0721 36.7629L48.1511 36.7789L48.2301 36.7919L48.3091 36.8079L48.3881 36.8219L48.4701 36.8349L48.6281 36.8579L48.7091 36.8689L48.7881 36.8799L48.8691 36.8889L48.9481 36.8979L49.1111 36.9159L49.1901 36.9229L49.2711 36.9299L49.3531 36.9339L49.4321 36.9409L49.5951 36.9499L49.9201 36.9589H50.0821L50.1641 36.9569H50.2451L50.4081 36.9529L50.7331 36.9339L50.9771 36.9139L51.2211 36.8869L51.4651 36.8529L51.5441 36.8419L51.7881 36.8009L52.0321 36.7539L52.1111 36.7359L52.2741 36.6999L52.3531 36.6789L52.5151 36.6389L52.5941 36.6179L52.6761 36.5959L52.7551 36.5729L52.8341 36.5479L52.9151 36.5259L52.9941 36.5009L53.1521 36.4469L53.2341 36.4189L53.3131 36.3919L53.3921 36.3629L53.4711 36.3359L53.5501 36.3039L53.6271 36.2749L53.7851 36.2119L53.8621 36.1779L53.9411 36.1439L54.0181 36.1099L54.0971 36.0739L54.1731 36.0399L54.2501 36.0019L54.3271 35.9649L54.4811 35.8889L54.5571 35.8479L54.6341 35.8099L54.7111 35.7689L54.7861 35.7259L54.8621 35.6829L54.9371 35.6399L55.0481 35.5769L55.1561 35.5109L55.4751 35.3079L55.5781 35.2379L55.6821 35.1659L55.7841 35.0929L55.8831 35.0209L55.9831 34.9469L56.2741 34.7159L56.3691 34.6369L56.4621 34.5579L56.5541 34.4769L56.6451 34.3949L56.7351 34.3119L56.8231 34.2279L56.9111 34.1419L57.0831 33.9709L57.2501 33.7949L57.3311 33.7059L57.4101 33.6159L57.4901 33.5229L57.5691 33.4329L57.6431 33.3409L57.7201 33.2459L57.7941 33.1509L57.9391 32.9609L58.0091 32.8639L58.0771 32.7669L58.2121 32.5679L58.2781 32.4689L58.3411 32.3689L58.4041 32.2679L58.4651 32.1659L58.5261 32.0619L58.5851 31.9599L58.6981 31.7519L58.7551 31.6459L58.8061 31.5399L58.8611 31.4339L58.9101 31.3279L58.9601 31.2189L59.0101 31.1129L59.0571 31.0049L59.1021 30.8939L59.1481 30.7859L59.2331 30.5639L59.2741 30.4539L59.3121 30.3429L59.3511 30.2299L59.3871 30.1189L59.4231 30.0059L59.4571 29.8929L59.4891 29.7779L59.5201 29.6649L59.5501 29.5499L59.5791 29.4369L59.6061 29.3219L59.6561 29.0909L59.6781 28.9739L59.7011 28.8589L59.7211 28.7409L59.7391 28.6259L59.7581 28.5089L59.7891 28.2739L59.8031 28.1559L59.8141 28.0389L59.8321 27.8039L59.8411 27.6839L59.8481 27.5669L59.8521 27.4469L59.8571 27.2099V26.9729L59.8551 26.8529L59.8501 26.7349L59.8461 26.6159L59.8391 26.4959L59.8301 26.3779L59.8211 26.2589L59.8091 26.1389L59.7981 26.0219L59.7821 25.9019L59.7691 25.7819L59.7511 25.6649L59.7331 25.5449L59.7121 25.4269L59.6921 25.3079L59.6691 25.1899L59.6451 25.0709L59.5901 24.8359L59.5321 24.6009L59.5001 24.4829L59.4321 24.2479L59.3961 24.1329L59.3581 24.0159L59.3171 23.8999L59.2761 23.7829L59.1911 23.5519L59.1451 23.4369L59.0981 23.3239L59.0481 23.2089L58.9991 23.0959L58.9471 22.9809L58.8381 22.7549L58.7821 22.6439L58.7231 22.5309L58.6641 22.4209L58.6031 22.3099L58.5401 22.1989L58.4951 22.1229L58.4471 22.0439L58.4021 21.9689L58.3551 21.8919L58.3071 21.8179L58.2581 21.7429L58.2101 21.6689L58.1601 21.5959L58.1081 21.5219L58.0591 21.4489L58.0071 21.3789L57.9531 21.3089L57.9011 21.2389L57.8461 21.1689L57.7921 21.1019L57.7361 21.0339L55.6081 28.9739L44.6021 26.0259L46.8001 17.8239L46.6921 17.8619Z" fill="#EC1414" stroke="#EC1414" stroke-width="1.5" stroke-miterlimit="2" stroke-linejoin="round"/>
</g>
</g>
</g>
<defs>
<clipPath id="clip0_51_3409">
<rect width="70" height="70" fill="white" transform="translate(0.196289 0.77002)"/>
</clipPath>
<clipPath id="clip1_51_3409">
<rect width="70" height="70" fill="white" transform="translate(0.196289 0.77002)"/>
</clipPath>
<clipPath id="clip2_51_3409">
<rect width="70" height="70" fill="white" transform="translate(0.196289 0.77002)"/>
</clipPath>
</defs>
</svg>
