<svg width="82" height="75" viewBox="0 0 82 75" fill="none" xmlns="http://www.w3.org/2000/svg">
<g clip-path="url(#clip0_51_3385)">
<g clip-path="url(#clip1_51_3385)">
<g clip-path="url(#clip2_51_3385)">
<path d="M14.6201 13.4431H55.5411" stroke="#DE2424" stroke-width="3" stroke-miterlimit="10" stroke-linecap="round" stroke-linejoin="round"/>
<path d="M12.1855 18.6401H57.8135C59.6005 18.6401 61.0625 20.1001 61.0625 21.8871V54.8491C61.0625 56.6361 59.6005 58.0971 57.8135 58.0971H12.1855C10.3985 58.0971 8.93652 56.6361 8.93652 54.8491V21.8871C8.93652 20.1001 10.3985 18.6401 12.1855 18.6401Z" stroke="#DE2424" stroke-width="3" stroke-miterlimit="10" stroke-linecap="round" stroke-linejoin="round"/>
<path d="M21.1172 18.6401H48.8842" stroke="#DE2424" stroke-width="3" stroke-miterlimit="10" stroke-linecap="round" stroke-linejoin="round"/>
<path d="M34.4314 45.4321L28.9104 42.0231C30.6974 41.2101 31.8334 39.4251 31.9964 37.3131L32.1584 33.0911C32.1584 30.3301 29.8844 28.0581 26.9614 28.0581H25.8244C22.9014 28.0581 20.6294 30.3301 20.6294 33.0911L20.7914 37.3131C20.7914 39.4251 22.0904 41.0471 23.8774 42.0231L18.3564 45.4321C17.3804 45.9191 16.7324 46.8931 16.7324 47.8671V49.9791H35.8924V47.8671C35.8924 46.8931 35.4044 45.9191 34.4314 45.4321Z" stroke="#DE2424" stroke-width="3" stroke-miterlimit="10" stroke-linecap="round" stroke-linejoin="round"/>
<path d="M43.3633 31.792H53.2663" stroke="#DE2424" stroke-width="3" stroke-miterlimit="10" stroke-linecap="round" stroke-linejoin="round"/>
<path d="M43.3633 39.1001H53.2663" stroke="#DE2424" stroke-width="3" stroke-miterlimit="10" stroke-linecap="round" stroke-linejoin="round"/>
<path d="M43.3633 46.2451H53.2663" stroke="#DE2424" stroke-width="3" stroke-miterlimit="10" stroke-linecap="round" stroke-linejoin="round"/>
</g>
</g>
</g>
<defs>
<clipPath id="clip0_51_3385">
<rect width="70" height="70" fill="white" transform="translate(0 0.77002)"/>
</clipPath>
<clipPath id="clip1_51_3385">
<rect width="70" height="70" fill="white" transform="translate(0 0.77002)"/>
</clipPath>
<clipPath id="clip2_51_3385">
<rect width="70" height="70" fill="white" transform="translate(0 0.77002)"/>
</clipPath>
</defs>
</svg>
